<svg width="25" height="25" viewBox="0 0 25 25" fill="none" xmlns="http://www.w3.org/2000/svg">
<path d="M25 12.5C25 19.4097 19.4097 25 12.5 25C5.59028 25 0 19.4097 0 12.5C0 5.59028 5.59028 0 12.5 0C19.4097 0 25 5.59028 25 12.5Z" fill="white"/>
<path d="M20.2086 10.0347L21.7016 8.40272H18.3683C16.7016 7.25689 14.6877 6.59717 12.5002 6.59717C10.3127 6.59717 8.29883 7.25689 6.63216 8.40272H3.29883L4.79188 10.0347C3.85438 10.868 3.29883 12.0833 3.29883 13.4374C3.29883 15.9722 5.34744 18.0208 7.88216 18.0208C9.09744 18.0208 10.1738 17.5694 11.0072 16.8055L12.5002 18.4027L13.9586 16.8055C14.7919 17.5694 15.8683 18.0208 17.0836 18.0208C19.6183 18.0208 21.6669 15.9722 21.6669 13.4374C21.7016 12.0833 21.1113 10.868 20.2086 10.0347ZM7.91688 16.5277C6.18077 16.5277 4.79188 15.1388 4.79188 13.4027C4.79188 11.6666 6.18077 10.2777 7.91688 10.2777C9.65299 10.2777 11.0419 11.6666 11.0419 13.4027C11.0072 15.1388 9.61827 16.5277 7.91688 16.5277ZM12.5002 13.3333C12.5002 11.2847 11.0072 9.51383 9.06272 8.78467C10.1391 8.33328 11.2849 8.09022 12.5002 8.09022C13.7155 8.09022 14.8961 8.33328 15.9377 8.78467C13.9933 9.54856 12.5002 11.2847 12.5002 13.3333ZM17.0836 16.5277C15.3474 16.5277 13.9586 15.1388 13.9586 13.4027C13.9586 11.6666 15.3474 10.2777 17.0836 10.2777C18.8197 10.2777 20.2086 11.6666 20.2086 13.4027C20.2086 15.1388 18.8197 16.5277 17.0836 16.5277ZM17.0836 11.8055C16.1808 11.8055 15.4516 12.5347 15.4516 13.4374C15.4516 14.3402 16.1808 15.0694 17.0836 15.0694C17.9863 15.0694 18.7155 14.3402 18.7155 13.4374C18.7155 12.5347 17.9863 11.8055 17.0836 11.8055ZM9.54883 13.4374C9.54883 14.3402 8.81966 15.0694 7.91688 15.0694C7.01411 15.0694 6.28494 14.3402 6.28494 13.4374C6.28494 12.5347 7.01411 11.8055 7.91688 11.8055C8.81966 11.8055 9.54883 12.5347 9.54883 13.4374Z" fill="#204D71"/>
</svg>
